<svg width="1920" height="127" viewBox="0 0 1920 127" fill="none" xmlns="http://www.w3.org/2000/svg">
<rect x="-59" width="2038" height="127" fill="#1D2229"/>
<path d="M-55.2074 86V42.3636H-26.3153V49.9702H-45.9815V60.3679H-28.233V67.9744H-45.9815V86H-55.2074ZM40.6897 64.1818C40.6897 68.9403 39.7877 72.9886 37.9837 76.3267C36.194 79.6648 33.7508 82.2145 30.6542 83.9759C27.5718 85.723 24.1059 86.5966 20.2565 86.5966C16.3786 86.5966 12.8985 85.7159 9.81612 83.9545C6.73374 82.1932 4.29766 79.6435 2.50788 76.3054C0.718112 72.9673 -0.176775 68.9261 -0.176775 64.1818C-0.176775 59.4233 0.718112 55.375 2.50788 52.0369C4.29766 48.6989 6.73374 46.1562 9.81612 44.4091C12.8985 42.6477 16.3786 41.767 20.2565 41.767C24.1059 41.767 27.5718 42.6477 30.6542 44.4091C33.7508 46.1562 36.194 48.6989 37.9837 52.0369C39.7877 55.375 40.6897 59.4233 40.6897 64.1818ZM31.336 64.1818C31.336 61.0994 30.8744 58.5 29.9511 56.3835C29.042 54.267 27.7565 52.6619 26.0945 51.5682C24.4326 50.4744 22.4866 49.9276 20.2565 49.9276C18.0264 49.9276 16.0803 50.4744 14.4184 51.5682C12.7565 52.6619 11.4639 54.267 10.5406 56.3835C9.63146 58.5 9.17692 61.0994 9.17692 64.1818C9.17692 67.2642 9.63146 69.8636 10.5406 71.9801C11.4639 74.0966 12.7565 75.7017 14.4184 76.7955C16.0803 77.8892 18.0264 78.4361 20.2565 78.4361C22.4866 78.4361 24.4326 77.8892 26.0945 76.7955C27.7565 75.7017 29.042 74.0966 29.9511 71.9801C30.8744 69.8636 31.336 67.2642 31.336 64.1818ZM106.725 57.6406H97.3929C97.2224 56.4332 96.8744 55.3608 96.3489 54.4233C95.8233 53.4716 95.1486 52.6619 94.3247 51.9943C93.5009 51.3267 92.5491 50.8153 91.4696 50.4602C90.4043 50.1051 89.2466 49.9276 87.9966 49.9276C85.7381 49.9276 83.7707 50.4886 82.0946 51.6108C80.4185 52.7187 79.1188 54.3381 78.1955 56.4688C77.2722 58.5852 76.8105 61.1562 76.8105 64.1818C76.8105 67.2926 77.2722 69.9062 78.1955 72.0227C79.133 74.1392 80.4398 75.7372 82.1159 76.8168C83.792 77.8963 85.731 78.4361 87.9327 78.4361C89.1685 78.4361 90.3119 78.2727 91.3631 77.946C92.4284 77.6193 93.373 77.1435 94.1969 76.5185C95.0207 75.8793 95.7026 75.1051 96.2423 74.196C96.7963 73.2869 97.1798 72.25 97.3929 71.0852L106.725 71.1278C106.484 73.1307 105.88 75.0625 104.914 76.9233C103.963 78.7699 102.677 80.4247 101.058 81.8878C99.4526 83.3366 97.5349 84.4872 95.3048 85.3395C93.0889 86.1776 90.5818 86.5966 87.7835 86.5966C83.8915 86.5966 80.4114 85.7159 77.3432 83.9545C74.2892 82.1932 71.8744 79.6435 70.0989 76.3054C68.3375 72.9673 67.4568 68.9261 67.4568 64.1818C67.4568 59.4233 68.3517 55.375 70.1415 52.0369C71.9313 48.6989 74.3602 46.1562 77.4284 44.4091C80.4966 42.6477 83.9483 41.767 87.7835 41.767C90.3119 41.767 92.6557 42.1222 94.8148 42.8324C96.9881 43.5426 98.9128 44.5795 100.589 45.9432C102.265 47.2926 103.629 48.9474 104.68 50.9077C105.745 52.8679 106.427 55.1122 106.725 57.6406ZM160.994 42.3636H170.22V70.7017C170.22 73.8835 169.46 76.6676 167.94 79.054C166.435 81.4403 164.325 83.3011 161.612 84.6364C158.899 85.9574 155.739 86.6179 152.131 86.6179C148.508 86.6179 145.341 85.9574 142.628 84.6364C139.915 83.3011 137.805 81.4403 136.3 79.054C134.794 76.6676 134.041 73.8835 134.041 70.7017V42.3636H143.267V69.9134C143.267 71.5753 143.629 73.0526 144.354 74.3452C145.092 75.6378 146.129 76.6534 147.464 77.392C148.8 78.1307 150.355 78.5 152.131 78.5C153.92 78.5 155.476 78.1307 156.797 77.392C158.132 76.6534 159.162 75.6378 159.886 74.3452C160.625 73.0526 160.994 71.5753 160.994 69.9134V42.3636ZM222.182 54.9134C222.012 53.1946 221.28 51.8594 219.988 50.9077C218.695 49.956 216.941 49.4801 214.725 49.4801C213.219 49.4801 211.948 49.6932 210.911 50.1193C209.874 50.5312 209.079 51.1065 208.525 51.8452C207.985 52.5838 207.715 53.4219 207.715 54.3594C207.687 55.1406 207.85 55.8224 208.205 56.4048C208.575 56.9872 209.079 57.4915 209.718 57.9176C210.357 58.3295 211.096 58.6918 211.934 59.0043C212.772 59.3026 213.667 59.5582 214.619 59.7713L218.539 60.7088C220.442 61.1349 222.19 61.7031 223.78 62.4134C225.371 63.1236 226.749 63.9972 227.914 65.0341C229.079 66.071 229.981 67.2926 230.62 68.6989C231.273 70.1051 231.607 71.7173 231.621 73.5355C231.607 76.206 230.925 78.5213 229.576 80.4815C228.241 82.4276 226.309 83.9403 223.78 85.0199C221.266 86.0852 218.234 86.6179 214.682 86.6179C211.16 86.6179 208.092 86.0781 205.478 84.9986C202.878 83.919 200.847 82.321 199.384 80.2045C197.935 78.0739 197.175 75.4389 197.104 72.2997H206.032C206.131 73.7628 206.55 74.9844 207.289 75.9645C208.042 76.9304 209.043 77.6619 210.293 78.1591C211.557 78.642 212.985 78.8835 214.576 78.8835C216.138 78.8835 217.495 78.6562 218.646 78.2017C219.81 77.7472 220.712 77.1151 221.351 76.3054C221.991 75.4957 222.31 74.5653 222.31 73.5142C222.31 72.5341 222.019 71.7102 221.437 71.0426C220.869 70.375 220.03 69.8068 218.923 69.3381C217.829 68.8693 216.486 68.4432 214.896 68.0597L210.144 66.8665C206.465 65.9716 203.56 64.5724 201.43 62.669C199.299 60.7656 198.241 58.2017 198.255 54.9773C198.241 52.3352 198.944 50.027 200.364 48.0526C201.799 46.0781 203.766 44.5369 206.266 43.429C208.766 42.321 211.607 41.767 214.789 41.767C218.028 41.767 220.854 42.321 223.269 43.429C225.698 44.5369 227.587 46.0781 228.937 48.0526C230.286 50.027 230.982 52.3139 231.025 54.9134H222.182ZM333.213 64.1818C333.213 68.9403 332.311 72.9886 330.507 76.3267C328.717 79.6648 326.274 82.2145 323.178 83.9759C320.095 85.723 316.629 86.5966 312.78 86.5966C308.902 86.5966 305.422 85.7159 302.34 83.9545C299.257 82.1932 296.821 79.6435 295.031 76.3054C293.242 72.9673 292.347 68.9261 292.347 64.1818C292.347 59.4233 293.242 55.375 295.031 52.0369C296.821 48.6989 299.257 46.1562 302.34 44.4091C305.422 42.6477 308.902 41.767 312.78 41.767C316.629 41.767 320.095 42.6477 323.178 44.4091C326.274 46.1562 328.717 48.6989 330.507 52.0369C332.311 55.375 333.213 59.4233 333.213 64.1818ZM323.859 64.1818C323.859 61.0994 323.398 58.5 322.475 56.3835C321.565 54.267 320.28 52.6619 318.618 51.5682C316.956 50.4744 315.01 49.9276 312.78 49.9276C310.55 49.9276 308.604 50.4744 306.942 51.5682C305.28 52.6619 303.987 54.267 303.064 56.3835C302.155 58.5 301.7 61.0994 301.7 64.1818C301.7 67.2642 302.155 69.8636 303.064 71.9801C303.987 74.0966 305.28 75.7017 306.942 76.7955C308.604 77.8892 310.55 78.4361 312.78 78.4361C315.01 78.4361 316.956 77.8892 318.618 76.7955C320.28 75.7017 321.565 74.0966 322.475 71.9801C323.398 69.8636 323.859 67.2642 323.859 64.1818ZM397.246 42.3636V86H389.277L370.293 58.5355H369.973V86H360.747V42.3636H368.844L387.679 69.8068H388.063V42.3636H397.246ZM457.598 42.3636H467.932L477.882 61.1562H478.309L488.259 42.3636H498.593L482.676 70.5739V86H473.514V70.5739L457.598 42.3636ZM561.794 64.1818C561.794 68.9403 560.892 72.9886 559.088 76.3267C557.299 79.6648 554.855 82.2145 551.759 83.9759C548.676 85.723 545.211 86.5966 541.361 86.5966C537.483 86.5966 534.003 85.7159 530.921 83.9545C527.838 82.1932 525.402 79.6435 523.613 76.3054C521.823 72.9673 520.928 68.9261 520.928 64.1818C520.928 59.4233 521.823 55.375 523.613 52.0369C525.402 48.6989 527.838 46.1562 530.921 44.4091C534.003 42.6477 537.483 41.767 541.361 41.767C545.211 41.767 548.676 42.6477 551.759 44.4091C554.855 46.1562 557.299 48.6989 559.088 52.0369C560.892 55.375 561.794 59.4233 561.794 64.1818ZM552.441 64.1818C552.441 61.0994 551.979 58.5 551.056 56.3835C550.147 54.267 548.861 52.6619 547.199 51.5682C545.537 50.4744 543.591 49.9276 541.361 49.9276C539.131 49.9276 537.185 50.4744 535.523 51.5682C533.861 52.6619 532.569 54.267 531.645 56.3835C530.736 58.5 530.282 61.0994 530.282 64.1818C530.282 67.2642 530.736 69.8636 531.645 71.9801C532.569 74.0966 533.861 75.7017 535.523 76.7955C537.185 77.8892 539.131 78.4361 541.361 78.4361C543.591 78.4361 545.537 77.8892 547.199 76.7955C548.861 75.7017 550.147 74.0966 551.056 71.9801C551.979 69.8636 552.441 67.2642 552.441 64.1818ZM616.282 42.3636H625.508V70.7017C625.508 73.8835 624.748 76.6676 623.228 79.054C621.722 81.4403 619.613 83.3011 616.9 84.6364C614.187 85.9574 611.026 86.6179 607.418 86.6179C603.796 86.6179 600.628 85.9574 597.915 84.6364C595.202 83.3011 593.093 81.4403 591.587 79.054C590.081 76.6676 589.329 73.8835 589.329 70.7017V42.3636H598.554V69.9134C598.554 71.5753 598.917 73.0526 599.641 74.3452C600.38 75.6378 601.417 76.6534 602.752 77.392C604.087 78.1307 605.642 78.5 607.418 78.5C609.208 78.5 610.763 78.1307 612.084 77.392C613.419 76.6534 614.449 75.6378 615.174 74.3452C615.912 73.0526 616.282 71.5753 616.282 69.9134V42.3636ZM653.798 86V42.3636H671.014C674.309 42.3636 677.122 42.9531 679.452 44.1321C681.795 45.2969 683.578 46.9517 684.8 49.0966C686.035 51.2273 686.653 53.7344 686.653 56.6179C686.653 59.5156 686.028 62.0085 684.778 64.0966C683.528 66.1705 681.717 67.7614 679.345 68.8693C676.987 69.9773 674.132 70.5312 670.78 70.5312H659.253V63.1165H669.288C671.05 63.1165 672.513 62.875 673.677 62.392C674.842 61.9091 675.709 61.1847 676.277 60.2188C676.859 59.2528 677.15 58.0526 677.15 56.6179C677.15 55.169 676.859 53.9474 676.277 52.9531C675.709 51.9588 674.835 51.206 673.656 50.6946C672.491 50.169 671.021 49.9062 669.246 49.9062H663.024V86H653.798ZM677.363 66.142L688.209 86H678.024L667.413 66.142H677.363ZM1250.52 42.3636V86H1242.55L1223.56 58.5355H1223.24V86H1214.02V42.3636H1222.11L1240.95 69.8068H1241.33V42.3636H1250.52ZM1318.94 64.1818C1318.94 68.9403 1318.04 72.9886 1316.23 76.3267C1314.44 79.6648 1312 82.2145 1308.9 83.9759C1305.82 85.723 1302.35 86.5966 1298.5 86.5966C1294.63 86.5966 1291.15 85.7159 1288.06 83.9545C1284.98 82.1932 1282.55 79.6435 1280.76 76.3054C1278.97 72.9673 1278.07 68.9261 1278.07 64.1818C1278.07 59.4233 1278.97 55.375 1280.76 52.0369C1282.55 48.6989 1284.98 46.1562 1288.06 44.4091C1291.15 42.6477 1294.63 41.767 1298.5 41.767C1302.35 41.767 1305.82 42.6477 1308.9 44.4091C1312 46.1562 1314.44 48.6989 1316.23 52.0369C1318.04 55.375 1318.94 59.4233 1318.94 64.1818ZM1309.58 64.1818C1309.58 61.0994 1309.12 58.5 1308.2 56.3835C1307.29 54.267 1306 52.6619 1304.34 51.5682C1302.68 50.4744 1300.74 49.9276 1298.5 49.9276C1296.27 49.9276 1294.33 50.4744 1292.67 51.5682C1291 52.6619 1289.71 54.267 1288.79 56.3835C1287.88 58.5 1287.43 61.0994 1287.43 64.1818C1287.43 67.2642 1287.88 69.8636 1288.79 71.9801C1289.71 74.0966 1291 75.7017 1292.67 76.7955C1294.33 77.8892 1296.27 78.4361 1298.5 78.4361C1300.74 78.4361 1302.68 77.8892 1304.34 76.7955C1306 75.7017 1307.29 74.0966 1308.2 71.9801C1309.12 69.8636 1309.58 67.2642 1309.58 64.1818ZM1342.82 49.9702V42.3636H1378.66V49.9702H1365.3V86H1356.18V49.9702H1342.82ZM1471.87 42.3636H1482.21L1492.16 61.1562H1492.59L1502.54 42.3636H1512.87L1496.95 70.5739V86H1487.79V70.5739L1471.87 42.3636ZM1576.07 64.1818C1576.07 68.9403 1575.17 72.9886 1573.37 76.3267C1571.58 79.6648 1569.13 82.2145 1566.04 83.9759C1562.95 85.723 1559.49 86.5966 1555.64 86.5966C1551.76 86.5966 1548.28 85.7159 1545.2 83.9545C1542.12 82.1932 1539.68 79.6435 1537.89 76.3054C1536.1 72.9673 1535.2 68.9261 1535.2 64.1818C1535.2 59.4233 1536.1 55.375 1537.89 52.0369C1539.68 48.6989 1542.12 46.1562 1545.2 44.4091C1548.28 42.6477 1551.76 41.767 1555.64 41.767C1559.49 41.767 1562.95 42.6477 1566.04 44.4091C1569.13 46.1562 1571.58 48.6989 1573.37 52.0369C1575.17 55.375 1576.07 59.4233 1576.07 64.1818ZM1566.72 64.1818C1566.72 61.0994 1566.26 58.5 1565.33 56.3835C1564.42 54.267 1563.14 52.6619 1561.48 51.5682C1559.81 50.4744 1557.87 49.9276 1555.64 49.9276C1553.41 49.9276 1551.46 50.4744 1549.8 51.5682C1548.14 52.6619 1546.85 54.267 1545.92 56.3835C1545.01 58.5 1544.56 61.0994 1544.56 64.1818C1544.56 67.2642 1545.01 69.8636 1545.92 71.9801C1546.85 74.0966 1548.14 75.7017 1549.8 76.7955C1551.46 77.8892 1553.41 78.4361 1555.64 78.4361C1557.87 78.4361 1559.81 77.8892 1561.48 76.7955C1563.14 75.7017 1564.42 74.0966 1565.33 71.9801C1566.26 69.8636 1566.72 67.2642 1566.72 64.1818ZM1630.56 42.3636H1639.78V70.7017C1639.78 73.8835 1639.02 76.6676 1637.5 79.054C1636 81.4403 1633.89 83.3011 1631.18 84.6364C1628.46 85.9574 1625.3 86.6179 1621.69 86.6179C1618.07 86.6179 1614.9 85.9574 1612.19 84.6364C1609.48 83.3011 1607.37 81.4403 1605.86 79.054C1604.36 76.6676 1603.61 73.8835 1603.61 70.7017V42.3636H1612.83V69.9134C1612.83 71.5753 1613.19 73.0526 1613.92 74.3452C1614.66 75.6378 1615.69 76.6534 1617.03 77.392C1618.36 78.1307 1619.92 78.5 1621.69 78.5C1623.48 78.5 1625.04 78.1307 1626.36 77.392C1627.7 76.6534 1628.73 75.6378 1629.45 74.3452C1630.19 73.0526 1630.56 71.5753 1630.56 69.9134V42.3636ZM1668.07 86V42.3636H1685.29C1688.59 42.3636 1691.4 42.9531 1693.73 44.1321C1696.07 45.2969 1697.85 46.9517 1699.08 49.0966C1700.31 51.2273 1700.93 53.7344 1700.93 56.6179C1700.93 59.5156 1700.3 62.0085 1699.05 64.0966C1697.8 66.1705 1695.99 67.7614 1693.62 68.8693C1691.26 69.9773 1688.41 70.5312 1685.06 70.5312H1673.53V63.1165H1683.56C1685.33 63.1165 1686.79 62.875 1687.95 62.392C1689.12 61.9091 1689.99 61.1847 1690.55 60.2188C1691.14 59.2528 1691.43 58.0526 1691.43 56.6179C1691.43 55.169 1691.14 53.9474 1690.55 52.9531C1689.99 51.9588 1689.11 51.206 1687.93 50.6946C1686.77 50.169 1685.3 49.9062 1683.52 49.9062H1677.3V86H1668.07ZM1691.64 66.142L1702.49 86H1692.3L1681.69 66.142H1691.64ZM1762.74 86V42.3636H1771.96V78.3935H1790.67V86H1762.74ZM1855.88 64.1818C1855.88 68.9403 1854.98 72.9886 1853.17 76.3267C1851.38 79.6648 1848.94 82.2145 1845.84 83.9759C1842.76 85.723 1839.3 86.5966 1835.45 86.5966C1831.57 86.5966 1828.09 85.7159 1825.01 83.9545C1821.92 82.1932 1819.49 79.6435 1817.7 76.3054C1815.91 72.9673 1815.01 68.9261 1815.01 64.1818C1815.01 59.4233 1815.91 55.375 1817.7 52.0369C1819.49 48.6989 1821.92 46.1562 1825.01 44.4091C1828.09 42.6477 1831.57 41.767 1835.45 41.767C1839.3 41.767 1842.76 42.6477 1845.84 44.4091C1848.94 46.1562 1851.38 48.6989 1853.17 52.0369C1854.98 55.375 1855.88 59.4233 1855.88 64.1818ZM1846.53 64.1818C1846.53 61.0994 1846.06 58.5 1845.14 56.3835C1844.23 54.267 1842.95 52.6619 1841.28 51.5682C1839.62 50.4744 1837.68 49.9276 1835.45 49.9276C1833.22 49.9276 1831.27 50.4744 1829.61 51.5682C1827.95 52.6619 1826.65 54.267 1825.73 56.3835C1824.82 58.5 1824.37 61.0994 1824.37 64.1818C1824.37 67.2642 1824.82 69.8636 1825.73 71.9801C1826.65 74.0966 1827.95 75.7017 1829.61 76.7955C1831.27 77.8892 1833.22 78.4361 1835.45 78.4361C1837.68 78.4361 1839.62 77.8892 1841.28 76.7955C1842.95 75.7017 1844.23 74.0966 1845.14 71.9801C1846.06 69.8636 1846.53 67.2642 1846.53 64.1818ZM1907.09 54.9134C1906.92 53.1946 1906.18 51.8594 1904.89 50.9077C1903.6 49.956 1901.84 49.4801 1899.63 49.4801C1898.12 49.4801 1896.85 49.6932 1895.81 50.1193C1894.78 50.5312 1893.98 51.1065 1893.43 51.8452C1892.89 52.5838 1892.62 53.4219 1892.62 54.3594C1892.59 55.1406 1892.75 55.8224 1893.11 56.4048C1893.48 56.9872 1893.98 57.4915 1894.62 57.9176C1895.26 58.3295 1896 58.6918 1896.84 59.0043C1897.68 59.3026 1898.57 59.5582 1899.52 59.7713L1903.44 60.7088C1905.35 61.1349 1907.09 61.7031 1908.68 62.4134C1910.27 63.1236 1911.65 63.9972 1912.82 65.0341C1913.98 66.071 1914.88 67.2926 1915.52 68.6989C1916.18 70.1051 1916.51 71.7173 1916.52 73.5355C1916.51 76.206 1915.83 78.5213 1914.48 80.4815C1913.14 82.4276 1911.21 83.9403 1908.68 85.0199C1906.17 86.0852 1903.14 86.6179 1899.59 86.6179C1896.06 86.6179 1892.99 86.0781 1890.38 84.9986C1887.78 83.919 1885.75 82.321 1884.29 80.2045C1882.84 78.0739 1882.08 75.4389 1882.01 72.2997H1890.94C1891.03 73.7628 1891.45 74.9844 1892.19 75.9645C1892.94 76.9304 1893.95 77.6619 1895.2 78.1591C1896.46 78.642 1897.89 78.8835 1899.48 78.8835C1901.04 78.8835 1902.4 78.6562 1903.55 78.2017C1904.71 77.7472 1905.62 77.1151 1906.25 76.3054C1906.89 75.4957 1907.21 74.5653 1907.21 73.5142C1907.21 72.5341 1906.92 71.7102 1906.34 71.0426C1905.77 70.375 1904.93 69.8068 1903.83 69.3381C1902.73 68.8693 1901.39 68.4432 1899.8 68.0597L1895.05 66.8665C1891.37 65.9716 1888.46 64.5724 1886.33 62.669C1884.2 60.7656 1883.14 58.2017 1883.16 54.9773C1883.14 52.3352 1883.85 50.027 1885.27 48.0526C1886.7 46.0781 1888.67 44.5369 1891.17 43.429C1893.67 42.321 1896.51 41.767 1899.69 41.767C1902.93 41.767 1905.76 42.321 1908.17 43.429C1910.6 44.5369 1912.49 46.0781 1913.84 48.0526C1915.19 50.027 1915.89 52.3139 1915.93 54.9134H1907.09ZM1967.1 54.9134C1966.93 53.1946 1966.2 51.8594 1964.91 50.9077C1963.61 49.956 1961.86 49.4801 1959.64 49.4801C1958.14 49.4801 1956.87 49.6932 1955.83 50.1193C1954.79 50.5312 1954 51.1065 1953.44 51.8452C1952.9 52.5838 1952.63 53.4219 1952.63 54.3594C1952.61 55.1406 1952.77 55.8224 1953.12 56.4048C1953.49 56.9872 1954 57.4915 1954.64 57.9176C1955.28 58.3295 1956.02 58.6918 1956.85 59.0043C1957.69 59.3026 1958.59 59.5582 1959.54 59.7713L1963.46 60.7088C1965.36 61.1349 1967.11 61.7031 1968.7 62.4134C1970.29 63.1236 1971.67 63.9972 1972.83 65.0341C1974 66.071 1974.9 67.2926 1975.54 68.6989C1976.19 70.1051 1976.53 71.7173 1976.54 73.5355C1976.53 76.206 1975.84 78.5213 1974.5 80.4815C1973.16 82.4276 1971.23 83.9403 1968.7 85.0199C1966.19 86.0852 1963.15 86.6179 1959.6 86.6179C1956.08 86.6179 1953.01 86.0781 1950.4 84.9986C1947.8 83.919 1945.77 82.321 1944.3 80.2045C1942.85 78.0739 1942.09 75.4389 1942.02 72.2997H1950.95C1951.05 73.7628 1951.47 74.9844 1952.21 75.9645C1952.96 76.9304 1953.96 77.6619 1955.21 78.1591C1956.48 78.642 1957.9 78.8835 1959.5 78.8835C1961.06 78.8835 1962.41 78.6562 1963.57 78.2017C1964.73 77.7472 1965.63 77.1151 1966.27 76.3054C1966.91 75.4957 1967.23 74.5653 1967.23 73.5142C1967.23 72.5341 1966.94 71.7102 1966.36 71.0426C1965.79 70.375 1964.95 69.8068 1963.84 69.3381C1962.75 68.8693 1961.41 68.4432 1959.82 68.0597L1955.06 66.8665C1951.38 65.9716 1948.48 64.5724 1946.35 62.669C1944.22 60.7656 1943.16 58.2017 1943.17 54.9773C1943.16 52.3352 1943.86 50.027 1945.28 48.0526C1946.72 46.0781 1948.69 44.5369 1951.19 43.429C1953.69 42.321 1956.53 41.767 1959.71 41.767C1962.95 41.767 1965.77 42.321 1968.19 43.429C1970.62 44.5369 1972.51 46.0781 1973.86 48.0526C1975.21 50.027 1975.9 52.3139 1975.94 54.9134H1967.1Z" fill="white"/>
<path d="M783.047 86V42.3636H811.939V49.9702H792.272V60.3679H810.021V67.9744H792.272V86H783.047ZM848.07 42.3636V86H838.844V42.3636H848.07ZM874.699 49.9702V42.3636H910.537V49.9702H897.177V86H888.058V49.9702H874.699ZM973.637 42.3636V86H965.669L946.684 58.5355H946.365V86H937.139V42.3636H945.235L964.071 69.8068H964.454V42.3636H973.637ZM1001.96 86V42.3636H1031.36V49.9702H1011.19V60.3679H1029.85V67.9744H1011.19V78.3935H1031.45V86H1001.96ZM1083.07 54.9134C1082.9 53.1946 1082.17 51.8594 1080.88 50.9077C1079.58 49.956 1077.83 49.4801 1075.61 49.4801C1074.11 49.4801 1072.84 49.6932 1071.8 50.1193C1070.76 50.5312 1069.97 51.1065 1069.41 51.8452C1068.87 52.5838 1068.6 53.4219 1068.6 54.3594C1068.57 55.1406 1068.74 55.8224 1069.09 56.4048C1069.46 56.9872 1069.97 57.4915 1070.61 57.9176C1071.24 58.3295 1071.98 58.6918 1072.82 59.0043C1073.66 59.3026 1074.55 59.5582 1075.51 59.7713L1079.43 60.7088C1081.33 61.1349 1083.08 61.7031 1084.67 62.4134C1086.26 63.1236 1087.64 63.9972 1088.8 65.0341C1089.97 66.071 1090.87 67.2926 1091.51 68.6989C1092.16 70.1051 1092.49 71.7173 1092.51 73.5355C1092.49 76.206 1091.81 78.5213 1090.46 80.4815C1089.13 82.4276 1087.2 83.9403 1084.67 85.0199C1082.15 86.0852 1079.12 86.6179 1075.57 86.6179C1072.05 86.6179 1068.98 86.0781 1066.37 84.9986C1063.77 83.919 1061.73 82.321 1060.27 80.2045C1058.82 78.0739 1058.06 75.4389 1057.99 72.2997H1066.92C1067.02 73.7628 1067.44 74.9844 1068.18 75.9645C1068.93 76.9304 1069.93 77.6619 1071.18 78.1591C1072.44 78.642 1073.87 78.8835 1075.46 78.8835C1077.03 78.8835 1078.38 78.6562 1079.53 78.2017C1080.7 77.7472 1081.6 77.1151 1082.24 76.3054C1082.88 75.4957 1083.2 74.5653 1083.2 73.5142C1083.2 72.5341 1082.91 71.7102 1082.32 71.0426C1081.76 70.375 1080.92 69.8068 1079.81 69.3381C1078.72 68.8693 1077.37 68.4432 1075.78 68.0597L1071.03 66.8665C1067.35 65.9716 1064.45 64.5724 1062.32 62.669C1060.19 60.7656 1059.13 58.2017 1059.14 54.9773C1059.13 52.3352 1059.83 50.027 1061.25 48.0526C1062.69 46.0781 1064.65 44.5369 1067.15 43.429C1069.65 42.321 1072.49 41.767 1075.68 41.767C1078.92 41.767 1081.74 42.321 1084.16 43.429C1086.59 44.5369 1088.47 46.0781 1089.82 48.0526C1091.17 50.027 1091.87 52.3139 1091.91 54.9134H1083.07ZM1143.09 54.9134C1142.92 53.1946 1142.18 51.8594 1140.89 50.9077C1139.6 49.956 1137.84 49.4801 1135.63 49.4801C1134.12 49.4801 1132.85 49.6932 1131.82 50.1193C1130.78 50.5312 1129.98 51.1065 1129.43 51.8452C1128.89 52.5838 1128.62 53.4219 1128.62 54.3594C1128.59 55.1406 1128.75 55.8224 1129.11 56.4048C1129.48 56.9872 1129.98 57.4915 1130.62 57.9176C1131.26 58.3295 1132 58.6918 1132.84 59.0043C1133.68 59.3026 1134.57 59.5582 1135.52 59.7713L1139.44 60.7088C1141.35 61.1349 1143.09 61.7031 1144.68 62.4134C1146.28 63.1236 1147.65 63.9972 1148.82 65.0341C1149.98 66.071 1150.88 67.2926 1151.52 68.6989C1152.18 70.1051 1152.51 71.7173 1152.53 73.5355C1152.51 76.206 1151.83 78.5213 1150.48 80.4815C1149.14 82.4276 1147.21 83.9403 1144.68 85.0199C1142.17 86.0852 1139.14 86.6179 1135.59 86.6179C1132.06 86.6179 1129 86.0781 1126.38 84.9986C1123.78 83.919 1121.75 82.321 1120.29 80.2045C1118.84 78.0739 1118.08 75.4389 1118.01 72.2997H1126.94C1127.04 73.7628 1127.45 74.9844 1128.19 75.9645C1128.95 76.9304 1129.95 77.6619 1131.2 78.1591C1132.46 78.642 1133.89 78.8835 1135.48 78.8835C1137.04 78.8835 1138.4 78.6562 1139.55 78.2017C1140.71 77.7472 1141.62 77.1151 1142.26 76.3054C1142.89 75.4957 1143.21 74.5653 1143.21 73.5142C1143.21 72.5341 1142.92 71.7102 1142.34 71.0426C1141.77 70.375 1140.93 69.8068 1139.83 69.3381C1138.73 68.8693 1137.39 68.4432 1135.8 68.0597L1131.05 66.8665C1127.37 65.9716 1124.46 64.5724 1122.33 62.669C1120.2 60.7656 1119.14 58.2017 1119.16 54.9773C1119.14 52.3352 1119.85 50.027 1121.27 48.0526C1122.7 46.0781 1124.67 44.5369 1127.17 43.429C1129.67 42.321 1132.51 41.767 1135.69 41.767C1138.93 41.767 1141.76 42.321 1144.17 43.429C1146.6 44.5369 1148.49 46.0781 1149.84 48.0526C1151.19 50.027 1151.89 52.3139 1151.93 54.9134H1143.09Z" fill="#A1F75E"/>
</svg>
